<svg xmlns="http://www.w3.org/2000/svg" version="1.1" xmlns:xlink="http://www.w3.org/1999/xlink" xmlns:svgjs="http://svgjs.dev/svgjs" width="900.000000pt" height="954.000000pt"><svg version="1.0" xmlns="http://www.w3.org/2000/svg" width="900.000000pt" height="954.000000pt" viewBox="0 0 900.000000 954.000000" preserveAspectRatio="xMidYMid meet">  <g transform="translate(0.000000,954.000000) scale(0.100000,-0.100000)" fill="#019863" stroke="none"> <path d="M1005 8855 c-67 -18 -143 -48 -185 -74 -19 -11 -44 -25 -55 -30 -35 -15 -189 -173 -227 -231 -89 -138 -130 -237 -183 -445 -49 -194 -60 -285 -60 -520 l0 -210 492 -5 c270 -3 494 -8 497 -11 3 -3 6 -1328 6 -2945 0 -2101 3 -2976 11 -3069 9 -102 19 -150 44 -222 68 -190 219 -365 400 -462 75 -41 127 -59 239 -82 86 -18 191 -19 2855 -19 2685 1 2768 1 2846 20 176 42 274 96 393 220 49 50 108 130 139 189 47 88 56 107 97 219 36 99 63 204 76 302 4 30 13 91 19 135 7 46 11 159 9 265 l-3 185 -489 3 c-377 2 -492 5 -498 15 -4 6 -8 1346 -8 2977 -1 3049 -2 3129 -38 3220 -45 111 -57 138 -84 184 -71 117 -216 255 -328 312 -73 37 -110 51 -200 74 -73 19 -141 20 -2895 19 -2335 0 -2829 -3 -2870 -14z m5675 -366 c116 -25 236 -116 295 -224 59 -107 55 104 55 -3164 l0 -3009 -22 -6 c-13 -3 -1003 -6 -2200 -6 l-2177 0 -11 -20 c-7 -14 -9 -53 -4 -113 17 -239 -45 -577 -139 -762 -117 -228 -298 -311 -502 -230 -141 56 -223 143 -286 305 -12 29 -15 582 -20 3410 -4 2500 -8 3387 -17 3420 -6 25 -11 62 -12 84 0 40 -23 151 -46 225 -16 52 -18 98 -4 103 5 2 1141 2 2522 1 1900 -2 2526 -5 2568 -14z"></path> <path d="M4715 8143 c-100 -22 -181 -93 -206 -180 -21 -72 -21 -1745 0 -1817 18 -63 99 -146 158 -164 58 -17 1777 -17 1837 0 59 17 138 101 157 164 12 41 14 199 14 924 0 866 0 875 -21 920 -27 58 -76 107 -133 133 -41 18 -70 21 -265 25 -217 4 -265 -2 -217 -27 16 -9 21 -21 21 -56 0 -36 -5 -47 -27 -63 -16 -11 -38 -22 -50 -26 -20 -6 -83 -91 -83 -113 0 -5 24 -19 54 -32 29 -12 62 -32 73 -44 20 -22 46 -84 58 -141 6 -27 7 -28 25 -11 19 17 21 17 54 -6 41 -27 56 -56 56 -104 0 -51 -20 -85 -58 -101 -45 -19 -49 -18 -58 9 -7 21 -7 21 -15 2 -4 -11 -8 -66 -8 -122 -1 -155 -36 -217 -143 -255 -46 -16 -86 -18 -351 -18 -310 0 -303 -1 -395 43 -12 6 -35 27 -50 46 l-27 36 0 282 0 281 31 39 c17 21 56 50 87 65 l56 27 -32 55 c-18 32 -41 57 -54 60 -12 3 -35 18 -52 32 -38 32 -43 86 -11 106 11 7 20 18 20 25 0 10 -48 13 -212 12 -117 -1 -222 -3 -233 -6z m373 -505 c13 -13 17 -183 6 -212 -15 -38 -93 -5 -119 50 -19 40 -16 94 7 122 16 18 69 52 84 52 5 0 15 -5 22 -12z m166 -645 c50 -38 79 -53 165 -89 68 -28 265 -27 342 3 69 27 127 58 157 86 31 29 113 28 174 -2 56 -26 140 -98 190 -161 41 -52 128 -219 128 -248 0 -9 6 -37 14 -62 20 -69 31 -217 16 -235 -18 -22 -1681 -22 -1703 -1 -31 31 3 260 55 372 15 34 28 64 28 69 0 17 117 160 160 194 25 20 47 39 50 42 7 9 69 41 105 55 49 19 66 16 119 -23z"></path> <path d="M5235 8140 c-3 -6 1 -13 10 -16 28 -11 43 -52 32 -93 -10 -38 -13 -30 58 -144 l21 -32 237 -3 236 -2 46 77 c27 46 43 84 39 93 -17 39 -14 58 10 87 14 17 23 33 19 37 -11 11 -701 7 -708 -4z"></path> <path d="M5353 7613 c-29 -20 -32 -82 -5 -106 30 -27 87 -22 111 9 28 36 26 60 -5 89 -31 28 -69 31 -101 8z"></path> <path d="M5743 7613 c-31 -21 -33 -97 -4 -113 29 -15 77 -12 95 6 43 42 40 76 -6 108 -28 20 -56 19 -85 -1z"></path> <path d="M6093 7535 c0 -44 2 -61 4 -37 2 23 2 59 0 80 -2 20 -4 1 -4 -43z"></path> <path d="M2202 7500 c-101 -21 -164 -109 -146 -206 5 -26 22 -53 55 -86 l48 -48 870 0 c863 0 870 0 905 21 54 31 79 80 79 150 -1 51 -5 64 -34 100 -62 78 -6 74 -919 76 -448 0 -834 -3 -858 -7z"></path> <path d="M5370 7305 c-10 -12 -10 -18 0 -30 11 -13 45 -15 224 -13 l211 3 0 25 0 25 -211 3 c-179 2 -213 0 -224 -13z"></path> <path d="M2111 6512 c-72 -72 -78 -154 -18 -227 57 -69 8 -66 943 -65 920 0 881 -2 937 58 71 75 48 205 -47 263 -30 18 -62 19 -899 19 l-868 0 -48 -48z"></path> <path d="M2195 5621 c-47 -12 -71 -28 -106 -72 -28 -36 -32 -49 -32 -100 0 -51 4 -64 30 -97 16 -20 47 -47 69 -59 l39 -23 2160 0 c2088 0 2161 1 2201 19 23 10 54 36 70 57 25 32 29 46 29 103 0 77 -21 114 -88 152 l-42 24 -2150 2 c-1182 0 -2163 -2 -2180 -6z"></path> <path d="M2153 4664 c-68 -33 -97 -79 -96 -155 0 -46 5 -63 27 -92 16 -20 43 -46 61 -57 32 -20 44 -20 2214 -20 l2182 0 39 23 c45 25 90 98 90 145 0 72 -63 151 -137 171 -26 8 -717 11 -2184 11 l-2145 0 -51 -26z"></path> <path d="M2173 3743 c-36 -7 -101 -78 -113 -123 -21 -78 12 -161 79 -198 l39 -22 2183 0 2184 0 35 21 c57 35 90 93 90 159 0 52 -49 123 -104 149 l-42 21 -2165 -1 c-1190 -1 -2174 -4 -2186 -6z"></path> <path d="M2177 2793 c-57 -19 -112 -79 -122 -134 -14 -75 30 -152 112 -193 29 -15 225 -16 2193 -16 2349 0 2194 -4 2253 56 92 93 69 215 -53 280 -34 18 -107 19 -2185 21 -1954 2 -2154 0 -2198 -14z"></path> </g> </svg><style>@media (prefers-color-scheme: light) { :root { filter: none; } }
@media (prefers-color-scheme: dark) { :root { filter: none; } }
</style></svg>